<svg width="100%" version="1.1" id="Layer_1" xmlns="http://www.w3.org/2000/svg" x="0" y="0" viewBox="0 0 343.6 299.9" xml:space="preserve">
  <style>
    .st0{fill:#fff}.st1{fill:#d3e6f4}.st2{fill:#44bc69}.st3{fill:#4ece79}.st4{fill:#244965}.st6{fill:#161a2d}.st7{fill:#a6b6c0}
  </style>
  <path class="st0" d="M322.5 117.6c-3.6-25.3-22-35.3-46-40.6-5.6-1.2-13.4-1.5-18.1 1.6-7.4 4.8-.5 10.8 4.3 14.1 13 9.1 30.5 14.7 35.9 30.8 8.9 26.4-9.5 43.8-21 65.3 4.9 2.1 10.1 3.1 15.5 5 16-24.7 33.9-44.1 29.4-76.2z"/>
  <path class="st0" d="M333.6 210.3c-8.5-7-26.9-12.6-37.1-17.1-12.4-5.4-25.4-9.9-37.3-15.5-15.3-7.2-30.3-15.1-45-23.5 1.5-1.8 2.9-3.9 4.1-6 8.4-14.4 8.6-29.9.4-34.8-8.1-4.8-27.1 7.4-35.8 21.5-8-5.1-16.1-10-24.5-14.5 0 0-101.6-43.2-43.1 69.4-16.2 5.7-39.3 20.8-37.2 29.2 2.3 9.3 17.3 13.5 33.5 9.4 8.4-2.1 15.4-6 19.9-10.6-2 2 22.7 30.7 25.4 33.6 16.2 17.6 36.8 33.1 59.9 40.3 25.6 8 52.9 10.1 79.4 6.2 8-1.2 27-1.5 31-9.9.1-.1.1-.3.2-.4.3-.7.5-1.5.6-2.3.5-7.3-14.7-14.4-25.7-17.7 6.4-10.1 7.9-22.6 7-34.6 12.1 2.2 31.3-.3 34-7.4 2.1-5.8-6-12.3-9.7-15.3z"/>
  <path class="st1" d="M219.7 137.5c-.2 4.7-1.2 9-2.8 13.1l1.5-2.4c8.4-14.4 8.6-29.9.4-34.8-.9-.6-2-.9-3.2-1 2.6 8.1 4.4 16.8 4.1 25.1z"/>
  <path class="st0" d="M302.3 247.5c2.8 2.4 4.7 5.9 4.8 9.5 1-3.4 1.7-6.9 2.1-10.4-2.3.5-4.6.8-6.9.9z"/>
  <path class="st1" d="M96.6 198.9c1.8.5 3.7 1.2 5.7 2-8.6 5.6-16.6 13.8-16.1 24.8 0 .7.1 1.4.2 2-4.4-1.9-7.4-4.8-8.4-8.6-1.3-5.5 7.7-13.6 18.6-20.2zM100.9 196.4c-1.4.8-2.9 1.6-4.2 2.4 1.3-.8 2.7-1.6 4.2-2.4zM116.7 192.8l-1.8.9c-1.5.8-2.9 1.6-4.4 2.4-1.5-.8-3.1-1.6-4.6-2.2 3-1.4 6-2.7 8.8-3.7.6.5 1.3 1.5 2 2.6zM305.9 268.8c-.5.4-1 .8-1.6 1.1-.3.2-.6.4-1 .5 5.4 3.9 10.8 8.1 14.7 13.5 1.9 2.6 3.2 5.7 3.9 8.9 2.4-1.2 4.4-2.8 5.3-4.9.1-.1.1-.3.2-.4.3-.7.5-1.5.6-2.3.4-6.4-11.7-12.7-22.1-16.4zM276.9 77.2c3.2.7 6.3 1.5 9.3 2.4 0 2.4-.3 4.7-.8 6.9-2.4-2-4.8-4.2-6.8-6.6.1 0-1.3-1.9-1.3-2-.1-.1-.2-.4-.4-.7zM292.1 81.6c2.9 1.1 5.6 2.3 8.1 3.7 0 4.1-.6 7.7-1.8 10.9-.4-.3-.9-.7-1.3-1l-5.7-4.2c-.3-.2-.6-.5-1-.7 1-2.6 1.5-5.6 1.7-8.7zM323.1 124.6c-2.8-7.5-7.7-13.9-13.8-19.4-1.9-1.7-3.9-3.4-6-5.1 1.5-3.3 2.4-7.1 2.8-11.1 8.6 6.4 14.5 15.4 16.4 28.6.3 2.4.5 4.7.6 7z"/>
  <path class="st2" d="M306.1 89.1c-.3 4-1.2 7.7-2.8 11.1-1.6-1.3-3.3-2.6-4.9-3.9 1.2-3.3 1.8-6.9 1.8-10.9 2.1 1.1 4.1 2.3 5.9 3.7z"/>
  <path class="st3" d="M303.4 100.1c-1.1 2.6-2.7 4.9-4.5 7.1-2 2.3-4.2 4.2-6.6 5.7-1.4-1.5-2.9-2.9-4.5-4.3 2.4-1.4 4.7-3.2 6.6-5.4 1.8-2.1 3.2-4.4 4.1-7 1.6 1.3 3.3 2.6 4.9 3.9z"/>
  <path class="st2" d="M292.1 81.6c-.2 3.1-.7 6.1-1.6 8.8-.6-.4-1.1-.8-1.7-1.3-.2-.1-1.5-1.1-1.5-1.1-.6-.5-1.3-1-1.9-1.5.5-2.2.8-4.5.8-6.9.4.1.8.2 1.1.3.7.2 1.3.4 2 .6.4.1.7.3 1 .4.6.3 1.2.5 1.8.7z"/>
  <path class="st3" d="M287.3 79.9c-.4-.1-.7-.2-1.1-.3.4.1.7.2 1.1.3zM290.5 90.4c-1.2 3.8-3.1 7.3-5.7 10.3-1.1 1.3-2.3 2.4-3.5 3.4-1.8-1.1-3.6-2.3-5.5-3.3 1.6-1.1 3.1-2.5 4.5-4.1 2.5-2.9 4.2-6.3 5.1-10.2.6.5 1.3 1 1.9 1.5 0 0 1.4 1 1.5 1.1.6.4 1.2.9 1.7 1.3zM317.8 153.3c-6.6-.3-12.9-3.2-18.1-6.3-.6 2.6-1.5 5.2-2.5 7.8 4.9 2.8 10.7 5.3 17 6.2 1.3-2.6 2.6-5.1 3.6-7.7z"/>
  <path class="st4" d="M236.3 166.4c-11.4 46.7-49.9 81.8-68.3 96.2 2 1.8 4.1 3.6 6.2 5.4 7.7-6.1 18.3-15.4 29.1-27.3 20.3-22.5 34-46.5 40.2-70.5-2.3-1.3-4.8-2.6-7.2-3.8z"/>
  <path class="st1" d="M241.1 214.8L218 250.4c-1.9 2.3-5.4 2.6-7.8.7l-22.3-17.7c-3.9-3.1-4.7-8.6-1.7-12.2l24.1-30.4c1.9-2.3 5.4-2.6 7.8-.7l21.9 17c2.5 1.9 3 5.4 1.1 7.7z"/>
  <path d="M237.8 212L216 245.3c-1.7 2.2-4.9 2.6-7.1.8L189 230.3c-3.4-2.7-4-7.8-1.3-11.2l22.7-28.5c1.7-2.2 4.9-2.6 7.1-.8l19.4 15.1c2.3 1.7 2.7 4.9.9 7.1z" fill="#bbefdc"/>
  <path class="st4 blink-color" d="M221 205.9l-15.5 21.7c-1.2 1.5-2.8 2.1-3.7 1.5l-7.6-6.1c-1.3-1.1-.9-3.8.9-6.1l15.2-19.2c1.2-1.5 2.8-2.1 3.7-1.5l7.5 5.7c.9.8.6 2.5-.5 4z"/>
  <circle class="st3" cx="213.3" cy="233.2" r="4.6"/>
  <circle class="st6" cx="221.1" cy="223" r="2.7"/>
  <path class="st2" d="M110.5 196c-2.3 1.3-4.5 2.6-6.8 3.9-.5.3-1 .6-1.4.9-2-.8-3.9-1.5-5.7-2 1.4-.8 2.8-1.7 4.2-2.4.1-.1.3-.1.4-.2.8-.4 1.6-.8 2.3-1.2l1.2-.6 1.2-.6c1.6.6 3.1 1.4 4.6 2.2z"/>
  <path class="st3" d="M131 218.3c-1.9 1.8-4.1 3.4-6.6 4.9-4.6-12.5-13.7-19-22.1-22.4.5-.3.9-.6 1.4-.9 2.2-1.3 4.5-2.7 6.8-3.9 1.3.7 2.6 1.5 3.9 2.4 7.6 5 13.2 11.7 16.6 19.9zM214.3 154.2c1.5-1.8 2.9-3.9 4.1-6 .2-.3.4-.6.5-1-4.2-.9-7.7-2.8-10.5-5.9-5.8-6.3-7.7-16.1-8.2-23.7-2.5 1.6-5 3.6-7.4 5.7 1.1 7.9 3.8 16.9 9.8 23.4 3.3 3.6 7.3 6.1 11.9 7.6-.1 0-.2 0-.2-.1zM320.8 203c-2.5-1.1-5-2.2-7.6-3.2-1.4 2.1-2.7 4.5-3.7 7.1-3 7.9-3.1 16.9-.2 26.8v-.8c2.6.5 5.4.7 8.4.8-3-9.1-3.2-17.2-.7-24 .9-2.5 2.3-4.8 3.8-6.7zM297.5 297.8c-.5-4.9 0-9.4 1.8-13.4 2.9-6.8 8.5-11 12.4-13.3-3.1-1.3-6.3-2.5-9.2-3.4-3.9 3.1-7.9 7.5-10.5 13.4-2.3 5.4-3.1 11.3-2.4 17.7 2.2-.2 4.4-.5 6.6-.8.4-.1.8-.1 1.3-.2z"/>
  <path class="st6" d="M47.1 153.1c15.3 39.2 55.2 51 93 36.2 37.8-14.8 59.1-50.5 43.8-89.7s-58.4-59-96.1-44.3-56 58.6-40.7 97.8z"/>
  <path class="st0" d="M183.7 88.7c-5-12.7-12.7-23.5-22.3-31.9L139.8 3c-1.5-3.7-6.6-4-8.5-.5L112 37c-9.8-.3-19.8 1.3-29.4 5.1-16.8 6.6-29.9 18.6-38.2 33.3L2.9 73C.6 72.9-.8 75.4.5 77.3c0 0 28.2 39.4 34.2 47.8.8 6.6 2.5 13.3 5.1 19.9 16.1 41.2 58.1 53.7 97.8 38.1 39.8-15.6 62.2-53.2 46.1-94.4z"/>
  <path class="st3" d="M49.9 142.1c12.4 31.9 45.2 33.4 79.6 20s57.4-36.8 45-68.7C162 61.6 124 46.7 89.6 60.1s-52.2 50.2-39.7 82z"/>
  <path class="st6" d="M47 134.8c12.4 31.9 45.2 33.4 79.6 20s57.4-36.8 45-68.7c-12.4-31.9-50.4-46.8-84.8-33.3s-52.3 50.1-39.8 82z"/>
  <path class="st7" d="M63.9 86.3c-2-1.5-2.5-4.3-1-6.3 6.4-8.8 15.4-16 26.5-20.3 12.7-5 26.1-5.3 38-1.9 2.4.7 3.7 3.1 3.1 5.5-.6 2.5-3.2 3.9-5.7 3.2-10-2.9-21.3-2.6-32.1 1.7-9.4 3.7-17.1 9.8-22.5 17.2-1.4 2-4.2 2.4-6.3.9z"/>
  <circle transform="rotate(-21.341 140.449 70.29)" class="st7" cx="140.4" cy="70.3" r="5.4"/>
  <path class="st1" d="M183.7 88.7c-1.1-2.9-2.4-5.6-3.8-8.3 5.3 27.3 11.3 56.3-18.5 89.2 24.1-19 34.8-48.9 22.3-80.9zM293.6 191.1c-4.9-1.9-9.2-4.5-12.9-7.9-.5.9-1.1 1.9-1.6 2.9 4.9 2.1 9.7 4.1 15 6.1.2-.2.3-.5.5-.7-.3-.1-.6-.2-1-.4z"/>
</svg>
