<svg width="100%" id="Layer_1" data-name="Layer 1" xmlns="http://www.w3.org/2000/svg" viewBox="0 0 293.43 293.43">
  <defs>
    <style>
      .cls-3{fill:#3c99af}.cls-4{fill:#2f818e}.cls-5{fill:#4aaaba}
    </style>
  </defs>
  <circle cx="146.715" cy="146.715" r="146.684" fill="#5bc3e4"/>
  <path d="M3.553 178.763S20 27.668 184.6 5.018a148.312 148.312 0 00-5.973-1.473A146.731 146.731 0 003.552 178.772z" fill="#3daec9" fill-rule="evenodd"/>
  <path class="cls-3" d="M84.414 115.167c6.149-19.2-6.187-35.9-25.483-49.672a200.991 200.991 0 00-40.413 60.32c26.704 13.044 56.358 19.12 65.896-10.648z"/>
  <path class="cls-3" d="M133.177 254.855c-23.771-21.832-18.94-65.771 10.79-98.14a102.835 102.835 0 0130.244-22.866c-.726-9-4.068-18.466-11.255-28.6-33.356-47.04 40.579-83.092 66.519-42.27 16.936 26.651 34.008 57.838 63.566 73.114q.406 5.615.375 11.3A146.731 146.731 0 00181.7 4.271l.02.006c.949.233 1.891.478 2.831.729l.047.012a147.05 147.05 0 0122.349 7.921c-15.764 11.5-38.344 16.241-61.506 11.078A85.941 85.941 0 01129 18.573a203.38 203.38 0 00-41.572 22.592C99.305 52.475 109.607 67.9 117.01 88.74c40.113 112.9-32.45 100.674-31.3 140.409.546 18.833 23.892 43.041 48.213 63.7a146.1 146.1 0 0083.277-17.5c-11.082-2.965-23.371-6.338-34.97-10.328-18.55 4.407-36.524 1.341-49.053-10.166z"/>
  <path class="cls-3" d="M278.34 158.423A57.914 57.914 0 00261.871 161a73.569 73.569 0 00-7.032 2.47c4.338 22.262-4.327 50.024-24.792 72.305a107.706 107.706 0 01-12.373 11.525 71.823 71.823 0 0017.067 16.745 146.65 146.65 0 0058.138-105 186.544 186.544 0 00-14.539-.622z"/>
  <path class="cls-4" d="M35.2 51.418a144.167 144.167 0 00-7.985 10.164q-2.073 2.908-4.013 5.93-3.874 6.042-7.177 12.515A146.937 146.937 0 003.545 114.8c-.191.856-.359 1.713-.535 2.569 4.927 2.94 10.159 5.831 15.508 8.444A200.991 200.991 0 0158.931 65.5 182.969 182.969 0 0035.2 51.418zM64.785 25.053a97.552 97.552 0 0122.643 16.112A203.38 203.38 0 01129 18.573a78.93 78.93 0 01-20.733-13.428 147.157 147.157 0 00-43.482 19.908z"/>
  <path class="cls-5" d="M143.967 156.715c-29.73 32.369-34.561 76.308-10.79 98.14 12.529 11.507 30.5 14.573 49.055 10.162-27.3-9.392-50.775-22.207-45.684-41.2 8.181-30.525 40.306-57.179 37.663-89.963a102.835 102.835 0 00-30.244 22.861zM221.23 189.044c-6.088 7.54-11.76 16.184-13.1 26-1.192 8.7.608 16.712 4.647 24.409a64.511 64.511 0 004.9 7.85 107.8 107.8 0 0012.374-11.523c20.464-22.281 29.129-50.043 24.791-72.305a84.49 84.49 0 00-33.612 25.569z"/>
  <path d="M136.548 223.812c-5.091 19 18.384 31.813 45.684 41.2a91.935 91.935 0 0035.442-17.712 64.511 64.511 0 01-4.9-7.85c-4.039-7.7-5.839-15.713-4.647-24.409 1.344-9.812 7.016-18.456 13.1-26a84.49 84.49 0 0133.609-25.573 46.54 46.54 0 00-14-25.836c-16.481-15.136-42.382-15.668-66.627-3.786 2.645 32.787-29.48 59.441-37.661 89.966z" fill="#68d8f2"/>
</svg>
