<svg  width="100%" id="Layer_1" data-name="Layer 1" xmlns="http://www.w3.org/2000/svg" viewBox="0 0 293.417 293.417">
  <defs>
    <style>
      .cls-3{fill:#dba440}.cls-4{fill:#ce943a}.cls-5{fill:#eab25a}
    </style>
  </defs>
  <circle cx="146.709" cy="146.709" r="146.684" fill="#eac36e"/>
  <path d="M288.42 184.661S278.244 33.015 114.728 3.563c1.993-.444 4-.859 6.029-1.224A146.732 146.732 0 01288.421 184.67z" fill="#cea661" fill-rule="evenodd"/>
  <path class="cls-3" d="M210.264 117.769c-5.349-19.433 7.668-35.612 27.519-48.573a200.983 200.983 0 0137.879 61.942c-27.222 11.927-57.102 16.769-65.398-13.369z"/>
  <path class="cls-3" d="M155.755 255.317c24.655-20.829 21.649-64.93-6.714-98.5a102.84 102.84 0 00-29.271-24.1c1.1-8.965 4.829-18.283 12.43-28.11 35.279-45.617-37.1-84.7-64.71-44.99C49.464 85.542 31.114 115.994.948 130.033q-.637 5.592-.843 11.277A146.733 146.733 0 01117.653 2.937l-.02.005c-.958.193-1.909.4-2.858.611l-.048.01a147.121 147.121 0 00-22.657 6.988c15.274 12.142 37.638 17.817 60.994 13.618a86.022 86.022 0 0016.654-4.758 203.359 203.359 0 0140.6 24.3c-12.336 10.808-23.268 25.8-31.528 46.309-44.757 111.141 28.25 101.931 25.452 141.584-1.326 18.794-25.654 42.014-50.81 61.649a146.09 146.09 0 01-82.481-20.941c11.2-2.5 23.614-5.364 35.369-8.87 18.354 5.171 36.44 2.858 49.435-8.125z"/>
  <path class="cls-3" d="M14.712 152.952a57.967 57.967 0 0116.348 3.258 73.586 73.586 0 016.923 2.76c-5.257 22.063 2.251 50.16 21.775 73.27a107.731 107.731 0 0011.885 12.026A71.782 71.782 0 0153.9 260.289 146.658 146.658 0 01.16 152.969a187.8 187.8 0 0114.552-.017z"/>
  <path class="cls-4" d="M262.074 56.114a145.192 145.192 0 017.557 10.486q1.952 2.993 3.763 6.091 3.621 6.2 6.653 12.8a146.924 146.924 0 0111.031 35.263c.156.863.288 1.726.428 2.588-5.044 2.734-10.391 5.405-15.844 7.794A200.983 200.983 0 00237.783 69.2a182.85 182.85 0 0124.291-13.086zM233.61 28.546a97.521 97.521 0 00-23.291 15.16 203.357 203.357 0 00-40.6-24.295A78.9 78.9 0 00190.99 6.853a147.169 147.169 0 0142.62 21.693z"/>
  <path class="cls-5" d="M149.041 156.814c28.363 33.573 31.369 77.674 6.714 98.5-13 10.978-31.081 13.3-49.434 8.12 27.665-8.252 51.651-20.084 47.351-39.276-6.909-30.838-37.9-58.8-33.9-91.446a102.84 102.84 0 0129.269 24.102zM70.5 185.914c5.77 7.786 11.08 16.657 12.016 26.516.83 8.738-1.3 16.673-5.655 24.2a64.508 64.508 0 01-5.222 7.64 107.911 107.911 0 01-11.882-12.03c-19.523-23.11-27.031-51.207-21.774-73.27A84.486 84.486 0 0170.5 185.914z"/>
  <path d="M153.672 224.161c4.3 19.192-19.686 31.024-47.351 39.276a91.934 91.934 0 01-34.678-19.171 64.508 64.508 0 005.222-7.64c4.355-7.523 6.485-15.458 5.655-24.2-.936-9.859-6.246-18.73-12.016-26.516a84.486 84.486 0 00-32.521-26.94 46.536 46.536 0 0115.06-25.233c17.094-14.441 43-13.9 66.727-1.022-4 32.645 26.993 60.608 33.902 91.446z" fill="#ebd086"/>
</svg>
