<svg width="100%" id="Layer_1" data-name="Layer 1" xmlns="http://www.w3.org/2000/svg" viewBox="0 0 293.431 293.431">
  <defs>
    <style>
      .cls-3{fill:#2d8856}.cls-4{fill:#2c7c4c}.cls-5{fill:#41994e}
    </style>
  </defs>
  <circle cx="146.716" cy="146.716" r="146.684" fill="#49b137"/>
  <path d="M115.3 3.414s151.016 17.113 172.946 181.807a151.65 151.65 0 001.5-5.967 146.731 146.731 0 00-174.46-175.84z" fill="#409f41" fill-rule="evenodd"/>
  <path class="cls-3" d="M178.536 84.553c19.168 6.234 35.927-6.029 49.783-25.265a200.985 200.985 0 00-60.142-40.677c-13.161 26.647-19.366 56.274 10.359 65.942z"/>
  <path class="cls-3" d="M38.636 132.7c21.936-23.675 65.853-18.652 98.092 11.219a102.85 102.85 0 0122.733 30.344c9.006-.686 18.484-3.986 28.65-11.129 47.185-33.153 82.913 40.943 41.978 66.7-26.726 16.827-57.989 33.766-73.389 63.253q-5.616.381-11.3.326a146.732 146.732 0 00143.605-111.086l-.006.02a142.73 142.73 0 01-.741 2.827l-.012.048a147.053 147.053 0 01-8.019 22.313c-11.43-15.813-16.073-38.414-10.809-61.553a85.957 85.957 0 015.516-16.418 203.42 203.42 0 00-22.409-41.672c-11.362 11.828-26.836 22.062-47.705 29.374C91.745 156.883 104.29 84.374 64.55 85.353c-18.835.463-43.145 23.7-63.912 47.932a146.094 146.094 0 0017.141 83.354c3.013-11.069 6.44-23.344 10.481-34.925-4.33-18.571-1.186-36.532 10.376-49.014z"/>
  <path class="cls-3" d="M134.432 278.288a57.947 57.947 0 00-2.506-16.48 73.708 73.708 0 00-2.44-7.043c-22.28 4.241-50-4.546-72.195-25.108a107.791 107.791 0 01-11.469-12.423A71.8 71.8 0 0029 234.228a146.662 146.662 0 00104.747 58.6c.408-4.841.653-9.685.685-14.54z"/>
  <path class="cls-4" d="M242.5 35.622a145.64 145.64 0 00-10.128-8.029q-2.9-2.086-5.913-4.039-6.024-3.9-12.483-7.232a146.932 146.932 0 00-34.721-12.635c-.855-.195-1.711-.367-2.566-.546-2.962 4.914-5.875 10.132-8.512 15.47a200.985 200.985 0 0160.142 40.677A182.851 182.851 0 00242.5 35.622zM268.736 65.319a97.581 97.581 0 01-16.211 22.572 203.42 203.42 0 0122.409 41.672 78.924 78.924 0 0113.519-20.676 147.194 147.194 0 00-19.717-43.568z"/>
  <path class="cls-5" d="M136.728 143.923c-32.239-29.871-76.156-34.894-98.092-11.219-11.562 12.478-14.706 30.439-10.376 49.01 9.511-27.258 22.429-50.677 41.4-45.5 30.489 8.315 57 40.557 89.8 38.056a102.85 102.85 0 00-22.732-30.347zM104.061 221.044c-7.513-6.12-16.133-11.831-25.938-13.218-8.691-1.229-16.715.535-24.43 4.541a64.645 64.645 0 00-7.871 4.866 107.717 107.717 0 0011.469 12.424c22.191 20.562 49.915 29.349 72.195 25.109a84.484 84.484 0 00-25.425-33.722z"/>
  <path d="M69.664 136.211c-18.975-5.174-31.893 18.245-41.4 45.5a91.925 91.925 0 0017.562 35.519 64.645 64.645 0 017.871-4.866c7.715-4.006 15.739-5.77 24.43-4.541 9.8 1.387 18.425 7.1 25.938 13.218a84.484 84.484 0 0125.425 33.722 46.535 46.535 0 0025.9-13.889c15.209-16.414 15.854-42.312 4.078-66.61-32.802 2.504-59.315-29.738-89.804-38.053z" fill="#5aba38"/>
</svg>
