<?xml version="1.0" standalone="no"?>
<!DOCTYPE svg PUBLIC "-//W3C//DTD SVG 20010904//EN"
 "http://www.w3.org/TR/2001/REC-SVG-20010904/DTD/svg10.dtd">
<svg version="1.0" xmlns="http://www.w3.org/2000/svg"
 width="260.000000pt" height="260.000000pt" viewBox="0 0 260.000000 260.000000"
 preserveAspectRatio="xMidYMid meet">
<metadata>
Created by potrace 1.11, written by Peter Selinger 2001-2013
</metadata>
<g transform="translate(0.000000,260.000000) scale(0.100000,-0.100000)"
fill="#000000" stroke="none">
<path d="M1247 2564 c-1 -1 -33 -5 -72 -8 -170 -17 -370 -85 -523 -178 -160
-97 -305 -238 -407 -396 -390 -606 -191 -1419 436 -1780 597 -344 1371 -137
1720 459 50 86 107 219 124 289 38 158 44 210 41 370 -2 91 -6 179 -10 195 -3
17 -9 44 -12 60 -22 110 -142 386 -193 442 -9 10 -35 43 -58 74 -80 105 -221
226 -353 303 -143 84 -349 149 -510 162 -81 6 -180 11 -183 8z"/>
</g>
</svg>
